:version 1.10
:name ASF
:units
  mass 1
  length 1
  angle deg
:documentation
  ASF file generated by Kaydara
:root
  axis xyz
  order  tx ty tz rx ry rz
  position 0 0 0
  orientation 0 0 0
:bonedata
  begin
    id 1
    name abdomenDummy
    direction 1 -1.27917e-005 -1.26829e-007
    length 1.79048
    axis 0 0 0 xyz
  end
  begin
    id 2
    name abdomen
    direction 0.987238 0.159249 -9.68575e-008
    length 8.61378
    axis 2.73208e-005 5.54953e-006 9.16328 xyz
    dof rx ry rz
  end
  begin
    id 3
    name chest
    direction 0 0 0
    length 0
    axis 2.65071e-005 8.63688e-006 2.59796 xyz
    dof rx ry rz
  end
  begin
    id 4
    name neckDummyDummy
    direction 0.998972 0.0453274 -1.50742e-007
    length 9.56202
    axis 2.65071e-005 8.63688e-006 2.59796 xyz
  end
  begin
    id 5
    name neckDummy
    direction 0.99977 0.0214525 -1.61748e-007
    length 1.93574
    axis 2.62932e-005 9.26758e-006 1.22924 xyz
    dof rx ry rz
  end
  begin
    id 6
    name neck
    direction 0.99928 -0.0379406 -1.88707e-007
    length 3.70367
    axis 2.56966e-005 1.08122e-005 -2.17436 xyz
    dof rx ry rz
  end
  begin
    id 7
    name head
    direction 0.992648 -0.121037 -2.25408e-007
    length 6.35158
    axis 2.47068e-005 1.29149e-005 -6.95196 xyz
    dof rx ry rz
  end
  begin
    id 8
    name figureHair
    direction -0.86681 -0.498639 -7.83376e-008
    length 8.29884
    axis -2.7515e-005 4.48842e-006 -150.09 xyz
    dof rx ry rz
  end
  begin
    id 9
    name lCollarDummy
    direction 0.994611 0.0451299 -0.0933417
    length 9.60395
    axis 2.65071e-005 8.63688e-006 2.59796 xyz
  end
  begin
    id 10
    name lCollar
    direction 0.0384146 0.00127577 -0.999261
    length 6.95318
    axis 90.4899 87.7973 1.90202 xyz
    dof rx ry rz
  end
  begin
    id 11
    name lShldr
    direction -0.030648 0.0920515 -0.995282
    length 9.61158
    axis -161.793 84.4324 108.415 xyz
    dof rx ry rz
  end
  begin
    id 12
    name lForeArm
    direction 0.000163956 -0.0977586 -0.99521
    length 8.6068
    axis 0.134773 84.3899 -89.8525 xyz
    dof rx ry rz
  end
  begin
    id 13
    name lHand
    direction -0.0190533 -0.1444 -0.989336
    length 7.61479
    axis -7.3729 81.6249 -97.517 xyz
    dof rx ry rz
  end
  begin
    id 14
    name rCollarDummy
    direction 0.994871 0.0442627 0.0909555
    length 9.60761
    axis 2.65071e-005 8.63688e-006 2.59796 xyz
  end
  begin
    id 15
    name rCollar
    direction 0.0334251 -4.74072e-007 0.999441
    length 6.97058
    axis -178.152 -88.0845 -0.000674207 xyz
    dof rx ry rz
  end
  begin
    id 16
    name rShldr
    direction -0.026922 0.0719509 0.997045
    length 9.60913
    axis 71.2822 -85.594 110.514 xyz
    dof rx ry rz
  end
  begin
    id 17
    name rForeArm
    direction 0.00134679 -0.118986 0.992895
    length 8.57176
    axis -88.7923 -83.1659 -89.3516 xyz
    dof rx ry rz
  end
  begin
    id 18
    name rHand
    direction -0.0185183 -0.0768601 0.99687
    length 7.69687
    axis -74.5596 -85.4655 -103.546 xyz
    dof rx ry rz
  end
  begin
    id 19
    name lThighDummy
    direction -0.236086 -0.0385456 -0.970967
    length 4.99155
    axis 0 0 0 xyz
  end
  begin
    id 20
    name lThigh
    direction -0.993968 0.0148998 -0.108653
    length 13.572
    axis -91.4001 6.23768 179.141 xyz
    dof rx ry rz
  end
  begin
    id 21
    name lShin
    direction -0.992341 0.0904576 -0.0841193
    length 18.5862
    axis -91.4558 4.82538 174.792 xyz
    dof rx ry rz
  end
  begin
    id 22
    name lFoot
    direction 0.0209381 -0.999771 -0.00453005
    length 8.44474
    axis 4.86759 0.259522 -88.8001 xyz
    dof rx ry rz
  end
  begin
    id 23
    name rThighDummy
    direction -0.236086 -0.0385456 0.970967
    length 4.99155
    axis 0 0 0 xyz
  end
  begin
    id 24
    name rThigh
    direction -0.993968 0.0148995 0.108653
    length 13.5721
    axis -89.7059 -6.2377 179.141 xyz
    dof rx ry rz
  end
  begin
    id 25
    name rShin
    direction -0.9925 0.0899962 0.0827255
    length 18.6716
    axis -89.2745 -4.74775 174.819 xyz
    dof rx ry rz
  end
  begin
    id 26
    name rFoot
    direction 0.0301721 -0.999545 9.70865e-005
    length 8.45013
    axis -2.50066e-005 -0.00555246 -88.271 xyz
    dof rx ry rz
  end
:hierarchy
  begin
    root abdomenDummy lThighDummy rThighDummy
    abdomenDummy abdomen
    abdomen chest
    chest neckDummyDummy lCollarDummy rCollarDummy
    neckDummyDummy neckDummy
    neckDummy neck
    neck head
    head figureHair
    lCollarDummy lCollar
    lCollar lShldr
    lShldr lForeArm
    lForeArm lHand
    rCollarDummy rCollar
    rCollar rShldr
    rShldr rForeArm
    rForeArm rHand
    lThighDummy lThigh
    lThigh lShin
    lShin lFoot
    rThighDummy rThigh
    rThigh rShin
    rShin rFoot
  end

:SAMPLES-PER-SECOND 25
:FULLY-SPECIFIED
:DEGREES
933
root  4.14019 36.9819 -1.9298 176.674 0.730911 86.4195
abdomen  -2.71598 -15.7618 -4.51922
chest  0.256671 18.7826 -11.229
neckDummy  9.09964e-021 0 8.72668e-016
neck  38.0691 31.2534 31.3895
head  17.7302 4.21113 -3.28177
figureHair  0 1.51661e-021 -9.5315e-016
lCollar  -5.15695e-016 -6.42944e-016 -7.59357e-014
lShldr  10.9896 6.1761 -69.4379
lForeArm  30.7166 -33.3787 -0.0111262
lHand  0.254698 0.195082 5.2986
rCollar  1.7976e-016 -5.12864e-014 1.62755e-015
rShldr  6.2171 75.479 28.3594
rForeArm  -2.27005 1.05185 22.1171
rHand  0.637651 -12.628 -0.725306
lThigh  -6.73416 1.84999 -0.738482
lShin  -12.162 1.30662 -5.1234
lFoot  5.23608 -0.440962 -3.08823
rThigh  10.4388 -3.67916 -2.03038
rShin  3.5978 8.77503 2.9691
rFoot  -4.54618 0.213351 -2.73999
934
root  4.2688 36.9856 -1.99167 176.895 0.682144 86.425
abdomen  -2.57718 -15.3971 -4.20536
chest  0.297663 18.7461 -11.9387
neckDummy  9.09964e-021 0 8.72668e-016
neck  36.4943 32.6083 24.1046
head  17.9637 5.45514 -7.87436
figureHair  0 1.51661e-021 -9.5315e-016
lCollar  -5.15695e-016 -6.42944e-016 -7.59357e-014
lShldr  10.8168 5.6693 -69.7104
lForeArm  30.6899 -33.0018 -0.0307893
lHand  0.254698 0.195082 5.2986
rCollar  1.7976e-016 -5.12864e-014 1.62755e-015
rShldr  5.92852 74.3751 27.9316
rForeArm  -1.34529 1.05008 22.2505
rHand  0.634245 -12.8826 -0.602339
lThigh  -6.77625 1.55043 -0.601875
lShin  -11.8886 1.36775 -5.02855
lFoot  5.18579 -0.427488 -3.2897
rThigh  10.4062 -3.76493 -1.90812
rShin  3.85793 8.6393 3.10302
rFoot  -4.65666 0.202359 -2.91486
935
root  4.40643 36.9902 -2.04091 177.283 0.633591 86.4753
abdomen  -2.54201 -15.0118 -3.66654
chest  0.208726 18.5251 -12.8502
neckDummy  9.09964e-021 0 8.72668e-016
neck  33.3909 34.092 15.4868
head  17.3495 5.68505 -11.3081
figureHair  0 1.51661e-021 -9.5315e-016
lCollar  -5.15695e-016 -6.42944e-016 -7.59357e-014
lShldr  10.8474 4.88623 -69.976
lForeArm  30.5243 -32.3049 -0.0668432
lHand  0.254698 0.195082 5.2986
rCollar  1.7976e-016 -5.12864e-014 1.62755e-015
rShldr  7.31259 73.1344 29.511
rForeArm  -0.51306 1.05871 21.4284
rHand  0.645497 -12.8575 -0.697949
lThigh  -6.89541 1.14796 -0.436056
lShin  -11.3931 1.47128 -4.98138
lFoot  5.08271 -0.40965 -3.49253
rThigh  10.3484 -3.80537 -1.79412
rShin  4.28279 8.39257 3.24381
rFoot  -4.66527 0.177783 -3.11844
936
root  4.55556 36.9924 -2.08008 177.751 0.582321 86.5894
abdomen  -2.54982 -14.6876 -3.12469
chest  0.103883 18.3126 -13.6068
neckDummy  9.09964e-021 0 8.72668e-016
neck  28.8336 34.8671 5.75719
head  16.1526 5.23451 -14.0049
figureHair  0 1.51661e-021 -9.5315e-016
lCollar  -5.15695e-016 -6.42944e-016 -7.59357e-014
lShldr  10.8117 4.30048 -70.312
lForeArm  30.2419 -31.8935 -0.0878417
lHand  0.254698 0.195082 5.2986
rCollar  1.7976e-016 -5.12864e-014 1.62755e-015
rShldr  9.06138 72.2339 31.362
rForeArm  -0.357962 1.06863 20.4802
rHand  0.654577 -12.7151 -0.821793
lThigh  -6.98623 0.610674 -0.287019
lShin  -10.8802 1.6371 -4.90681
lFoot  4.8555 -0.385188 -3.63271
rThigh  10.2939 -3.94785 -1.70153
rShin  4.8107 8.2028 3.3978
rFoot  -4.69619 0.159678 -3.28639
937
root  4.70801 36.9924 -2.10787 178.279 0.577255 86.8053
abdomen  -2.54144 -14.2489 -2.63905
chest  0.0241059 17.9217 -14.1093
neckDummy  9.09964e-021 0 8.72668e-016
neck  23.4972 34.2231 -3.96096
head  14.5058 4.61975 -16.5338
figureHair  0 1.51661e-021 -9.5315e-016
lCollar  -5.15695e-016 -6.42944e-016 -7.59357e-014
lShldr  10.98 3.95525 -70.6223
lForeArm  30.0332 -31.9314 -0.0858847
lHand  0.254698 0.195082 5.2986
rCollar  1.7976e-016 -5.12864e-014 1.62755e-015
rShldr  10.1152 71.6092 32.4658
rForeArm  -0.425455 1.07349 20.0355
rHand  0.636149 -12.7707 -0.659051
lThigh  -6.94781 -0.119194 -0.244334
lShin  -10.5037 1.9112 -4.77317
lFoot  4.70622 -0.37043 -3.70677
rThigh  10.3208 -4.23486 -1.70198
rShin  5.35258 8.10117 3.58571
rFoot  -4.75403 0.149215 -3.41316
